HIERARCHY
ROOT root
{
	OFFSET 0.000000 0.000000 0.000000
	CHANNELS 6 Xposition Yposition Zposition Zrotation Yrotation Xrotation
	JOINT lhip
	{
		OFFSET 0.058581 -0.082280 -0.017664
		CHANNELS 3 Zrotation Yrotation Xrotation
		JOINT lknee
		{
			OFFSET 0.043451 -0.386469 0.008037
			CHANNELS 3 Zrotation Yrotation Xrotation
			JOINT lankle
			{
				OFFSET -0.014790 -0.426874 -0.037428
				CHANNELS 3 Zrotation Yrotation Xrotation
				JOINT ltoe
				{
					OFFSET 0.041054 -0.060286 0.122042
					CHANNELS 3 Zrotation Yrotation Xrotation
					End Site
					{
						OFFSET 0.000000 0.000000 0.000000
					}
				}
			}
		}
	}
	JOINT rhip
	{
		OFFSET -0.060310 -0.090513 -0.013543
		CHANNELS 3 Zrotation Yrotation Xrotation
		JOINT rknee
		{
			OFFSET -0.043257 -0.383688 -0.004843
			CHANNELS 3 Zrotation Yrotation Xrotation
			JOINT rankle
			{
				OFFSET 0.019056 -0.420046 -0.034562
				CHANNELS 3 Zrotation Yrotation Xrotation
				JOINT rtoe
				{
					OFFSET -0.034840 -0.062106 0.130323
					CHANNELS 3 Zrotation Yrotation Xrotation
					End Site
					{
						OFFSET 0.000000 0.000000 0.000000
					}
				}
			}
		}
	}
	JOINT lowerback
	{
		OFFSET 0.004439 0.124404 -0.038385
		CHANNELS 3 Zrotation Yrotation Xrotation
		JOINT upperback
		{
			OFFSET 0.004488 0.137956 0.026820
			CHANNELS 3 Zrotation Yrotation Xrotation
			JOINT chest
			{
				OFFSET -0.002265 0.056032 0.002855
				CHANNELS 3 Zrotation Yrotation Xrotation
				JOINT lowerneck
				{
					OFFSET -0.013390 0.211636 -0.033468
					CHANNELS 3 Zrotation Yrotation Xrotation
					JOINT upperneck
					{
						OFFSET 0.010113 0.088937 0.050410
						CHANNELS 3 Zrotation Yrotation Xrotation
						End Site
						{
							OFFSET 0.000000 0.000000 0.000000
						}
					}
				}
				JOINT lclavicle
				{
					OFFSET 0.071702 0.114000 -0.018898
					CHANNELS 3 Zrotation Yrotation Xrotation
					JOINT lshoulder
					{
						OFFSET 0.122921 0.045205 -0.019046
						CHANNELS 3 Zrotation Yrotation Xrotation
						JOINT lelbow
						{
							OFFSET 0.255332 -0.015649 -0.022946
							CHANNELS 3 Zrotation Yrotation Xrotation
							JOINT lwrist
							{
								OFFSET 0.265709 0.012698 -0.007375
								CHANNELS 3 Zrotation Yrotation Xrotation
								End Site
								{
									OFFSET 0.000000 0.000000 0.000000
								}
							}
						}
					}
				}
				JOINT rclavicle
				{
					OFFSET -0.082954 0.112472 -0.023707
					CHANNELS 3 Zrotation Yrotation Xrotation
					JOINT rshoulder
					{
						OFFSET -0.113228 0.046853 -0.008472
						CHANNELS 3 Zrotation Yrotation Xrotation
						JOINT relbow
						{
							OFFSET -0.260127 -0.014369 -0.031269
							CHANNELS 3 Zrotation Yrotation Xrotation
							JOINT rwrist
							{
								OFFSET -0.269108 0.006794 -0.006027
								CHANNELS 3 Zrotation Yrotation Xrotation
								End Site
								{
									OFFSET 0.000000 0.000000 0.000000
								}
							}
						}
					}
				}
			}
		}
	}
}
MOTION
Frames: 8
Frame Time: 0.033333
0.103414 0.001385 0.986752 -9.779881 3.061568 94.127489 2.969522 -2.120246 -23.732513 -6.497904 4.181949 11.567977 9.520018 10.953098 -13.980250 0.000000 -0.000000 0.000000 -4.914873 -3.208309 -4.472963 6.869331 -4.846902 38.120712 7.763411 -7.438190 -9.026368 0.000000 -0.000000 0.000000 -3.953387 4.263656 14.195249 0.287395 -1.348044 -6.500669 -0.339844 0.743670 0.791365 0.474680 5.271783 7.735817 -3.583675 2.632931 27.063417 -26.483367 -5.355005 0.542866 -46.491643 -12.566484 8.562545 4.612385 -14.272473 -1.054765 10.764093 -6.610828 -0.784555 24.230163 9.782832 3.608086 46.665777 15.339756 14.679273 0.104593 11.344118 6.032457 1.789213 4.589322 5.311905 
0.107312 -0.014308 0.987169 -9.835354 3.174887 93.552815 2.413549 -1.623019 -21.889859 -6.768025 3.465950 11.472097 10.066423 11.280689 -14.787495 0.000000 -0.000000 0.000000 -5.950601 -3.145446 -6.714981 6.297409 -6.053868 43.704619 7.814800 -8.697355 -7.843895 0.000000 -0.000000 0.000000 -4.220055 3.644651 14.431164 0.532502 -1.053483 -6.235680 -0.264177 0.491789 0.608006 0.808160 5.287985 7.712975 -3.948050 2.903125 27.216283 -26.718258 -6.147608 0.700652 -45.530009 -13.007203 9.130922 3.297500 -15.886218 -0.121107 11.483208 -6.917357 -0.524619 24.855174 10.448172 3.428015 45.080056 16.889721 14.700870 0.189925 12.906538 4.779622 0.540688 5.015277 5.817237 
0.110439 -0.028904 0.986144 -9.821091 3.313613 92.941499 1.967661 -1.126508 -20.522196 -6.802847 3.226243 12.140970 10.204032 11.184729 -15.750317 0.000000 -0.000000 0.000000 -6.586896 -3.647316 -9.040504 3.663770 -8.019519 47.840448 6.413983 -12.901989 -9.888157 0.000000 -0.000000 0.000000 -4.301304 3.136774 14.709778 0.651671 -0.793294 -6.071470 -0.209213 0.152378 0.438385 1.036073 5.334568 7.473447 -4.297101 3.379057 27.618313 -26.783478 -6.974053 1.121045 -44.448275 -13.995001 9.222987 2.075999 -17.358554 1.638015 11.959626 -7.691282 -0.049685 25.337677 11.045333 3.342934 44.080141 18.468233 14.453526 -0.263614 14.732140 3.096063 0.175710 5.492012 5.842747 
0.112873 -0.042856 0.985167 -9.626675 3.497869 92.232115 1.547793 -0.790116 -19.070218 -6.586693 3.016364 12.709229 9.821919 11.039966 -16.741553 0.000000 -0.000000 0.000000 -6.757319 -3.698990 -10.750675 0.531838 -10.144735 49.349842 4.913841 -16.548784 -13.141378 0.000000 -0.000000 0.000000 -4.270113 2.579271 15.307913 0.718938 -0.614816 -6.385119 -0.224366 0.034201 0.510567 1.682423 5.576276 7.464921 -4.559608 3.056208 28.248963 -26.648690 -7.746551 1.251342 -43.655116 -15.210540 9.688326 1.567046 -18.627562 3.220986 12.118402 -8.421998 0.498226 25.770596 11.385894 2.957345 43.752057 19.609679 14.460054 -1.004171 16.764182 1.375020 -0.541344 5.796305 4.339241 
0.114848 -0.056133 0.985005 -9.308465 3.757233 91.382396 1.220790 -0.083132 -17.399934 -6.437039 2.281013 13.142218 9.247088 10.990312 -17.519391 0.000000 -0.000000 0.000000 -6.533884 -3.866254 -11.976988 -1.630434 -11.696236 48.606738 4.460754 -17.498754 -15.723658 0.000000 -0.000000 0.000000 -3.996602 2.182778 16.036944 0.621223 -0.550991 -6.509459 -0.125005 -0.183459 0.435321 1.914459 5.687791 8.185125 -4.696604 2.769698 27.890438 -26.380947 -8.565768 1.130407 -43.254623 -16.361875 9.817381 1.610394 -19.846489 4.309255 12.239452 -8.250124 1.090346 25.825228 11.871383 2.844743 43.851796 20.607805 14.187331 -1.274406 18.566246 0.566079 -1.422513 5.614735 2.206005 
0.116714 -0.068016 0.985207 -8.760551 3.899565 90.926024 0.896840 0.320154 -15.923773 -6.327511 1.508190 12.966670 8.922848 10.654033 -18.079892 0.000000 -0.000000 0.000000 -6.217067 -4.301656 -13.843302 -2.502814 -13.148912 47.094075 4.622938 -17.712777 -17.700794 0.000000 -0.000000 0.000000 -3.852996 1.734532 16.437091 0.527382 -0.514206 -6.789393 -0.022035 -0.335739 0.432669 1.984297 5.712344 8.675238 -4.446012 2.578987 27.881438 -26.007341 -9.061588 0.938831 -43.493964 -17.822192 9.523333 2.333557 -20.827233 4.477207 12.087362 -7.886822 1.912127 25.603699 11.980052 2.733223 44.845534 21.117016 14.015493 -2.149418 20.705241 -0.105164 -0.832330 5.298724 1.332225 
0.118037 -0.079674 0.985860 -8.290116 3.970803 90.572548 0.471008 0.471377 -14.356064 -6.164096 0.620814 12.478110 9.001321 10.902397 -18.622751 0.000000 -0.000000 0.000000 -5.854586 -4.492447 -16.109291 -2.545088 -14.940703 45.253611 4.479578 -18.942648 -18.806964 0.000000 -0.000000 0.000000 -3.762244 1.264892 16.522644 0.371240 -0.303481 -7.033934 0.052960 -0.505160 0.754365 2.103247 5.420593 9.010987 -4.233576 2.331806 27.828095 -25.637971 -9.160362 0.681569 -44.002538 -19.195158 9.387688 3.645396 -22.385185 2.791916 12.752750 -7.708577 0.423418 25.240864 12.092499 2.470509 45.901846 21.401680 14.757842 -2.336411 22.317822 -0.027193 -1.076838 5.315473 -0.048792 
0.119072 -0.091176 0.986761 -7.736309 4.060345 90.152345 -0.013883 0.517335 -12.560012 -5.769637 -0.206690 11.584610 9.156348 11.033807 -18.631799 0.000000 -0.000000 0.000000 -5.374969 -4.689842 -18.123804 -1.884331 -16.554162 42.888890 4.544799 -18.844130 -20.010407 0.000000 -0.000000 0.000000 -3.516556 0.707504 16.733315 0.179189 -0.116979 -7.201204 0.138723 -0.613523 0.852501 2.209042 5.123426 9.206459 -4.154502 2.216257 28.160079 -25.352620 -8.873593 0.276436 -44.807329 -20.327868 9.231884 4.804603 -24.084499 0.330315 13.705138 -7.357064 -1.426943 24.820057 12.097501 2.292722 46.967436 21.480748 15.574354 -2.010629 23.389412 0.467180 -1.228894 5.625500 -0.668226 
